<?xml version="1.0" encoding="utf-8"?>
<!-- Generator: Adobe Illustrator 22.0.1, SVG Export Plug-In . SVG Version: 6.00 Build 0)  -->
<svg version="1.1" id="Layer_1" xmlns="http://www.w3.org/2000/svg" xmlns:xlink="http://www.w3.org/1999/xlink" x="0px" y="0px"
	 viewBox="0 0 128 97" style="enable-background:new 0 0 128 97;" xml:space="preserve">
<style type="text/css">
	.st0{font-family:'GTPressuraMono-Light';}
	.st1{font-size:9.9984px;}
	.st2{fill:#FFFFFF;}
	.st3{fill:url(#SVGID_1_);}
</style>
<text transform="matrix(1 0 0 1 25.5622 94.8535)" class="st0 st1">datahjelpen.no</text>
<rect x="42" y="16.1" class="st2" width="44" height="22.6"/>
<linearGradient id="SVGID_1_" gradientUnits="userSpaceOnUse" x1="-238.9446" y1="441.4556" x2="-238.223" y2="440.734" gradientTransform="matrix(128.0119 0 0 -97.0004 30609.8613 42818.1719)">
	<stop  offset="0" style="stop-color:#FF6655"/>
	<stop  offset="1" style="stop-color:#FF192F"/>
</linearGradient>
<path class="st3" d="M110.2,4.8v50H17.8v-50c0-4.9,5-4.8,5-4.8h82.3C110.6,0.1,110.2,4.8,110.2,4.8z M52.8,58.1h21L78,68
	c0,0,0.8,2.1-1.2,2.1h-27c-1.9,0-1.2-2.1-1.2-2.1L52.8,58.1z M42,38.7h8.3c3.7,0,6.6-1,8.6-3c2.1-2,3.1-4.8,3.1-8.3
	c0-3.6-1-6.3-3.1-8.3c-2-2-4.9-3-8.6-3H42L42,38.7L42,38.7z M46.2,35.3V19.5h4c5.2,0,7.8,2.6,7.8,7.9c0,5.3-2.6,7.9-7.8,7.9
	L46.2,35.3L46.2,35.3z M81.9,25.6H70.3v-9.5h-4.1v22.6h4.1v-9.8h11.6v9.8h4V16.1h-4L81.9,25.6L81.9,25.6z"/>
</svg>
